<svg width="20" height="18" viewBox="0 0 20 18" fill="none" xmlns="http://www.w3.org/2000/svg">
<path opacity="0.4" d="M18 0C19.1046 4.82823e-08 20 0.895431 20 2L20 16C20 17.1046 19.1046 18 18 18C16.8954 18 16 17.1046 16 16L16 2C16 0.89543 16.8954 -4.82823e-08 18 0Z" fill="#1D63FF"/>
<path opacity="0.4" d="M2 8C3.10457 8 4 8.89543 4 10L4 16C4 17.1046 3.10457 18 2 18C0.89543 18 -4.82823e-08 17.1046 0 16L2.62268e-07 10C3.10551e-07 8.89543 0.895431 8 2 8Z" fill="#1D63FF"/>
<path d="M10 4C11.1046 4 12 4.89543 12 6L12 16C12 17.1046 11.1046 18 10 18C8.89543 18 8 17.1046 8 16L8 6C8 4.89543 8.89543 4 10 4Z" fill="#1D63FF"/>
</svg>
