<svg width="1440" height="760" viewBox="0 0 1440 760" fill="none" xmlns="http://www.w3.org/2000/svg">
<path d="M1262.23 -1870.77C2282.5 -331.529 758.783 968.611 -30.1935 1300.73" stroke="url(#paint0_linear_4904_2065)" stroke-width="0.7" stroke-miterlimit="10"/>
<path d="M1290.76 -1802.99C2256.79 -300.252 747.533 972.665 -58.4794 1233.53" stroke="url(#paint1_linear_4904_2065)" stroke-width="0.7" stroke-miterlimit="10"/>
<path d="M1319.04 -1735.79C2230.02 -269.889 735.216 975.804 -87.2536 1165.18" stroke="url(#paint2_linear_4904_2065)" stroke-width="0.7" stroke-miterlimit="10"/>
<path d="M1347.57 -1668.02C2203.74 -238.368 723.965 979.858 -115.54 1097.98" stroke="url(#paint3_linear_4904_2065)" stroke-width="0.7" stroke-miterlimit="10"/>
<path d="M1376.1 -1600.24C2177.21 -207.426 712.471 983.332 -144.07 1030.21" stroke="url(#paint4_linear_4904_2065)" stroke-width="0.7" stroke-miterlimit="10"/>
<path d="M1404.63 -1532.47C2150.93 -175.905 700.977 986.806 -172.356 963.009" stroke="url(#paint5_linear_4904_2065)" stroke-width="0.7" stroke-miterlimit="10"/>
<path d="M1433.16 -1464.69C2124.4 -144.962 689.147 991.105 -200.886 895.235" stroke="url(#paint6_linear_4904_2065)" stroke-width="0.7" stroke-miterlimit="10"/>
<path d="M1461.45 -1397.5C2097.88 -114.02 677.412 993.999 -229.993 827.702" stroke="url(#paint7_linear_4904_2065)" stroke-width="0.7" stroke-miterlimit="10"/>
<path d="M1489.98 -1329.72C2072.17 -82.7432 666.16 998.053 -258.525 759.926" stroke="url(#paint8_linear_4904_2065)" stroke-width="0.7" stroke-miterlimit="10"/>
<path d="M1518.51 -1261.94C2045.65 -51.8 654.088 1001.77 -286.23 692.487" stroke="url(#paint9_linear_4904_2065)" stroke-width="0.7" stroke-miterlimit="10"/>
<path d="M1547.04 -1194.17C2019.12 -20.8582 642.592 1005.25 -314.762 624.712" stroke="url(#paint10_linear_4904_2065)" stroke-width="0.7" stroke-miterlimit="10"/>
<path d="M1575.33 -1126.97C1992.59 10.0832 631.1 1008.72 -343.87 557.179" stroke="url(#paint11_linear_4904_2065)" stroke-width="0.7" stroke-miterlimit="10"/>
<path d="M1603.86 -1059.2C1966.07 41.0261 619.605 1012.2 -371.821 489.161" stroke="url(#paint12_linear_4904_2065)" stroke-width="0.7" stroke-miterlimit="10"/>
<path d="M1632.38 -991.421C1939.78 72.5473 607.531 1015.91 -400.352 421.385" stroke="url(#paint13_linear_4904_2065)" stroke-width="0.7" stroke-miterlimit="10"/>
<path d="M1660.92 -923.646C1913.84 103.245 596.038 1019.39 -429.216 354.432" stroke="url(#paint14_linear_4904_2065)" stroke-width="0.7" stroke-miterlimit="10"/>
<path d="M1689.45 -855.871C1887.55 134.766 584.788 1023.44 -457.167 286.412" stroke="url(#paint15_linear_4904_2065)" stroke-width="0.7" stroke-miterlimit="10"/>
<path d="M1717.73 -788.674C1860.78 165.13 572.472 1026.58 -485.696 218.638" stroke="url(#paint16_linear_4904_2065)" stroke-width="0.7" stroke-miterlimit="10"/>
<path d="M1746.26 -720.898C1834.5 196.651 561.222 1030.64 -514.226 150.862" stroke="url(#paint17_linear_4904_2065)" stroke-width="0.7" stroke-miterlimit="10"/>
<path d="M1774.79 -653.124C1807.97 227.593 549.727 1034.11 -542.513 83.6652" stroke="url(#paint18_linear_4904_2065)" stroke-width="0.7" stroke-miterlimit="10"/>
<path d="M1803.32 -585.348C1781.69 259.114 538.477 1038.16 -571.042 15.89" stroke="url(#paint19_linear_4904_2065)" stroke-width="0.7" stroke-miterlimit="10"/>
<path d="M1831.61 -518.151C1755.5 289.234 526.159 1041.3 -599.573 -51.8853" stroke="url(#paint20_linear_4904_2065)" stroke-width="0.7" stroke-miterlimit="10"/>
<path d="M1860.14 -450.375C1729.22 320.755 514.665 1044.78 -628.103 -119.661" stroke="url(#paint21_linear_4904_2065)" stroke-width="0.7" stroke-miterlimit="10"/>
<path d="M1888.67 -382.601C1702.69 351.697 503.416 1048.83 -656.388 -186.858" stroke="url(#paint22_linear_4904_2065)" stroke-width="0.7" stroke-miterlimit="10"/>
<path d="M1917.2 -314.824C1676.41 383.219 491.921 1052.31 -684.919 -254.632" stroke="url(#paint23_linear_4904_2065)" stroke-width="0.7" stroke-miterlimit="10"/>
<path d="M1945.48 -247.628C1649.88 414.161 479.848 1056.02 -714.028 -322.164" stroke="url(#paint24_linear_4904_2065)" stroke-width="0.7" stroke-miterlimit="10"/>
<path d="M1974.01 -179.853C1623.35 445.102 468.355 1059.5 -741.978 -390.184" stroke="url(#paint25_linear_4904_2065)" stroke-width="0.7" stroke-miterlimit="10"/>
<path d="M2002.54 -112.078C1596.83 476.044 456.859 1062.97 -770.509 -457.96" stroke="url(#paint26_linear_4904_2065)" stroke-width="0.7" stroke-miterlimit="10"/>
<path d="M2031.07 -44.3016C1571.12 507.322 444.787 1066.69 -798.794 -525.155" stroke="url(#paint27_linear_4904_2065)" stroke-width="0.7" stroke-miterlimit="10"/>
<path d="M2059.6 23.473C1544.6 538.264 433.537 1070.74 -827.323 -592.932" stroke="url(#paint28_linear_4904_2065)" stroke-width="0.7" stroke-miterlimit="10"/>
<path d="M2087.89 90.6696C1518.07 569.206 421.798 1073.64 -855.855 -660.707" stroke="url(#paint29_linear_4904_2065)" stroke-width="0.7" stroke-miterlimit="10"/>
<path d="M2116.42 158.445C1491.54 600.148 410.549 1077.69 -884.384 -728.482" stroke="url(#paint30_linear_4904_2065)" stroke-width="0.7" stroke-miterlimit="10"/>
<path d="M2144.95 226.22C1465.26 631.669 398.475 1081.41 -912.671 -795.679" stroke="url(#paint31_linear_4904_2065)" stroke-width="0.7" stroke-miterlimit="10"/>
<path d="M2173.48 293.996C1438.73 662.611 386.981 1084.89 -941.2 -863.454" stroke="url(#paint32_linear_4904_2065)" stroke-width="0.7" stroke-miterlimit="10"/>
<path d="M2201.76 361.193C1412.79 693.31 375.488 1088.36 -969.73 -931.229" stroke="url(#paint33_linear_4904_2065)" stroke-width="0.7" stroke-miterlimit="10"/>
<defs>
<linearGradient id="paint0_linear_4904_2065" x1="1769.62" y1="-770.624" x2="-499.962" y2="184.749" gradientUnits="userSpaceOnUse">
<stop stop-color="#FFD76F"/>
<stop offset="1" stop-color="#1D63FF"/>
</linearGradient>
<linearGradient id="paint1_linear_4904_2065" x1="1764.15" y1="-764.806" x2="-498.704" y2="187.737" gradientUnits="userSpaceOnUse">
<stop stop-color="#FFD76F"/>
<stop offset="1" stop-color="#1D63FF"/>
</linearGradient>
<linearGradient id="paint2_linear_4904_2065" x1="1760.66" y1="-755.492" x2="-495.9" y2="194.399" gradientUnits="userSpaceOnUse">
<stop stop-color="#FFD76F"/>
<stop offset="1" stop-color="#1D63FF"/>
</linearGradient>
<linearGradient id="paint3_linear_4904_2065" x1="1759.65" y1="-741.933" x2="-491.203" y2="205.557" gradientUnits="userSpaceOnUse">
<stop stop-color="#FFD76F"/>
<stop offset="1" stop-color="#1D63FF"/>
</linearGradient>
<linearGradient id="paint4_linear_4904_2065" x1="1760.43" y1="-725.909" x2="-485.355" y2="219.449" gradientUnits="userSpaceOnUse">
<stop stop-color="#FFD76F"/>
<stop offset="1" stop-color="#1D63FF"/>
</linearGradient>
<linearGradient id="paint5_linear_4904_2065" x1="1763.07" y1="-707.407" x2="-478.342" y2="236.109" gradientUnits="userSpaceOnUse">
<stop stop-color="#FFD76F"/>
<stop offset="1" stop-color="#1D63FF"/>
</linearGradient>
<linearGradient id="paint6_linear_4904_2065" x1="1767.38" y1="-687.007" x2="-470.399" y2="254.982" gradientUnits="userSpaceOnUse">
<stop stop-color="#FFD76F"/>
<stop offset="1" stop-color="#1D63FF"/>
</linearGradient>
<linearGradient id="paint7_linear_4904_2065" x1="1773.14" y1="-665.45" x2="-462.401" y2="275.596" gradientUnits="userSpaceOnUse">
<stop stop-color="#FFD76F"/>
<stop offset="1" stop-color="#1D63FF"/>
</linearGradient>
<linearGradient id="paint8_linear_4904_2065" x1="1780.83" y1="-641.842" x2="-452.803" y2="298.4" gradientUnits="userSpaceOnUse">
<stop stop-color="#FFD76F"/>
<stop offset="1" stop-color="#1D63FF"/>
</linearGradient>
<linearGradient id="paint9_linear_4904_2065" x1="1790.12" y1="-617.003" x2="-441.942" y2="322.579" gradientUnits="userSpaceOnUse">
<stop stop-color="#FFD76F"/>
<stop offset="1" stop-color="#1D63FF"/>
</linearGradient>
<linearGradient id="paint10_linear_4904_2065" x1="1800.91" y1="-591.074" x2="-431.048" y2="348.462" gradientUnits="userSpaceOnUse">
<stop stop-color="#FFD76F"/>
<stop offset="1" stop-color="#1D63FF"/>
</linearGradient>
<linearGradient id="paint11_linear_4904_2065" x1="1812.3" y1="-564.025" x2="-420.24" y2="375.755" gradientUnits="userSpaceOnUse">
<stop stop-color="#FFD76F"/>
<stop offset="1" stop-color="#1D63FF"/>
</linearGradient>
<linearGradient id="paint12_linear_4904_2065" x1="1824.39" y1="-535.289" x2="-407.565" y2="404.247" gradientUnits="userSpaceOnUse">
<stop stop-color="#FFD76F"/>
<stop offset="1" stop-color="#1D63FF"/>
</linearGradient>
<linearGradient id="paint13_linear_4904_2065" x1="1837.08" y1="-505.152" x2="-394.88" y2="434.384" gradientUnits="userSpaceOnUse">
<stop stop-color="#FFD76F"/>
<stop offset="1" stop-color="#1D63FF"/>
</linearGradient>
<linearGradient id="paint14_linear_4904_2065" x1="1850.29" y1="-473.77" x2="-382.247" y2="466.01" gradientUnits="userSpaceOnUse">
<stop stop-color="#FFD76F"/>
<stop offset="1" stop-color="#1D63FF"/>
</linearGradient>
<linearGradient id="paint15_linear_4904_2065" x1="1864.08" y1="-441.017" x2="-367.881" y2="498.519" gradientUnits="userSpaceOnUse">
<stop stop-color="#FFD76F"/>
<stop offset="1" stop-color="#1D63FF"/>
</linearGradient>
<linearGradient id="paint16_linear_4904_2065" x1="1878.05" y1="-407.823" x2="-353.907" y2="531.713" gradientUnits="userSpaceOnUse">
<stop stop-color="#FFD76F"/>
<stop offset="1" stop-color="#1D63FF"/>
</linearGradient>
<linearGradient id="paint17_linear_4904_2065" x1="1878.56" y1="-406.613" x2="-353.398" y2="532.923" gradientUnits="userSpaceOnUse">
<stop stop-color="#FFD76F"/>
<stop offset="1" stop-color="#1D63FF"/>
</linearGradient>
<linearGradient id="paint18_linear_4904_2065" x1="1865.33" y1="-438.041" x2="-366.629" y2="501.495" gradientUnits="userSpaceOnUse">
<stop stop-color="#FFD76F"/>
<stop offset="1" stop-color="#1D63FF"/>
</linearGradient>
<linearGradient id="paint19_linear_4904_2065" x1="1852.53" y1="-468.454" x2="-379.431" y2="471.082" gradientUnits="userSpaceOnUse">
<stop stop-color="#FFD76F"/>
<stop offset="1" stop-color="#1D63FF"/>
</linearGradient>
<linearGradient id="paint20_linear_4904_2065" x1="1840" y1="-498.222" x2="-391.962" y2="441.315" gradientUnits="userSpaceOnUse">
<stop stop-color="#FFD76F"/>
<stop offset="1" stop-color="#1D63FF"/>
</linearGradient>
<linearGradient id="paint21_linear_4904_2065" x1="1828.1" y1="-526.485" x2="-403.859" y2="413.051" gradientUnits="userSpaceOnUse">
<stop stop-color="#FFD76F"/>
<stop offset="1" stop-color="#1D63FF"/>
</linearGradient>
<linearGradient id="paint22_linear_4904_2065" x1="1816.8" y1="-553.324" x2="-415.156" y2="386.212" gradientUnits="userSpaceOnUse">
<stop stop-color="#FFD76F"/>
<stop offset="1" stop-color="#1D63FF"/>
</linearGradient>
<linearGradient id="paint23_linear_4904_2065" x1="1805.87" y1="-579.288" x2="-426.087" y2="360.248" gradientUnits="userSpaceOnUse">
<stop stop-color="#FFD76F"/>
<stop offset="1" stop-color="#1D63FF"/>
</linearGradient>
<linearGradient id="paint24_linear_4904_2065" x1="1795.36" y1="-604.252" x2="-437.174" y2="335.528" gradientUnits="userSpaceOnUse">
<stop stop-color="#FFD76F"/>
<stop offset="1" stop-color="#1D63FF"/>
</linearGradient>
<linearGradient id="paint25_linear_4904_2065" x1="1785.4" y1="-627.922" x2="-446.558" y2="311.614" gradientUnits="userSpaceOnUse">
<stop stop-color="#FFD76F"/>
<stop offset="1" stop-color="#1D63FF"/>
</linearGradient>
<linearGradient id="paint26_linear_4904_2065" x1="1775.98" y1="-650.297" x2="-455.978" y2="289.239" gradientUnits="userSpaceOnUse">
<stop stop-color="#FFD76F"/>
<stop offset="1" stop-color="#1D63FF"/>
</linearGradient>
<linearGradient id="paint27_linear_4904_2065" x1="1767.32" y1="-670.87" x2="-464.637" y2="268.666" gradientUnits="userSpaceOnUse">
<stop stop-color="#FFD76F"/>
<stop offset="1" stop-color="#1D63FF"/>
</linearGradient>
<linearGradient id="paint28_linear_4904_2065" x1="1759.13" y1="-690.336" x2="-472.83" y2="249.2" gradientUnits="userSpaceOnUse">
<stop stop-color="#FFD76F"/>
<stop offset="1" stop-color="#1D63FF"/>
</linearGradient>
<linearGradient id="paint29_linear_4904_2065" x1="1751.53" y1="-708.378" x2="-480.427" y2="231.158" gradientUnits="userSpaceOnUse">
<stop stop-color="#FFD76F"/>
<stop offset="1" stop-color="#1D63FF"/>
</linearGradient>
<linearGradient id="paint30_linear_4904_2065" x1="1744.8" y1="-724.359" x2="-487.153" y2="215.177" gradientUnits="userSpaceOnUse">
<stop stop-color="#FFD76F"/>
<stop offset="1" stop-color="#1D63FF"/>
</linearGradient>
<linearGradient id="paint31_linear_4904_2065" x1="1739.17" y1="-737.748" x2="-492.79" y2="201.788" gradientUnits="userSpaceOnUse">
<stop stop-color="#FFD76F"/>
<stop offset="1" stop-color="#1D63FF"/>
</linearGradient>
<linearGradient id="paint32_linear_4904_2065" x1="1734.59" y1="-748.63" x2="-497.371" y2="190.906" gradientUnits="userSpaceOnUse">
<stop stop-color="#FFD76F"/>
<stop offset="1" stop-color="#1D63FF"/>
</linearGradient>
<linearGradient id="paint33_linear_4904_2065" x1="1732" y1="-754.786" x2="-499.962" y2="184.75" gradientUnits="userSpaceOnUse">
<stop stop-color="#FFD76F"/>
<stop offset="1" stop-color="#1D63FF"/>
</linearGradient>
</defs>
</svg>
