<svg width="34" height="30" viewBox="0 0 34 30" fill="none" xmlns="http://www.w3.org/2000/svg">
<path opacity="0.5" d="M26.0549 1H7.38824C3.9518 1 1.16602 3.78578 1.16602 7.22222V22.7778C1.16602 26.2142 3.9518 29 7.38824 29H26.0549C29.4913 29 32.2771 26.2142 32.2771 22.7778V7.22222C32.2771 3.78578 29.4913 1 26.0549 1Z" stroke="white" stroke-width="2" stroke-linecap="round" stroke-linejoin="round"/>
<path fill-rule="evenodd" clip-rule="evenodd" d="M6.41872 8.13097C6.77613 7.59485 7.50048 7.44998 8.0366 7.80739L13.9185 11.7286C15.6166 12.8607 17.8289 12.8607 19.5271 11.7286L25.409 7.80739C25.9451 7.44998 26.6694 7.59485 27.0268 8.13097C27.3843 8.66709 27.2394 9.39143 26.7033 9.74884L20.8214 13.6701C18.3395 15.3247 15.1061 15.3247 12.6242 13.6701L6.7423 9.74884C6.20618 9.39143 6.06131 8.66709 6.41872 8.13097Z" fill="white"/>
<path fill-rule="evenodd" clip-rule="evenodd" d="M0 19.6667C0 19.0223 0.522334 18.5 1.16667 18.5H10.5C11.1443 18.5 11.6667 19.0223 11.6667 19.6667C11.6667 20.311 11.1443 20.8333 10.5 20.8333H1.16667C0.522334 20.8333 0 20.311 0 19.6667Z" fill="white"/>
<path fill-rule="evenodd" clip-rule="evenodd" d="M0 24.3332C0 23.6888 0.522334 23.1665 1.16667 23.1665H10.5C11.1443 23.1665 11.6667 23.6888 11.6667 24.3332C11.6667 24.9775 11.1443 25.4998 10.5 25.4998H1.16667C0.522334 25.4998 0 24.9775 0 24.3332Z" fill="white"/>
</svg>
