<svg width="35" height="33" viewBox="0 0 35 33" fill="none" xmlns="http://www.w3.org/2000/svg">
<path d="M31.3156 9.81408V23.5723C31.3156 25.4367 29.8032 26.9474 27.9388 26.9474H19.9472L16.1578 32C16.1578 32 14.1384 29.307 12.3599 26.9373H4.37682C2.51241 26.9373 1 25.4249 1 23.5605V6.74379C1 4.87938 2.51241 3.36865 4.37682 3.36865H24.8685" stroke="#1D63FF" stroke-width="2" stroke-linecap="round" stroke-linejoin="round"/>
<path fill-rule="evenodd" clip-rule="evenodd" d="M29.4628 10.1052C32.2532 10.1052 34.5153 7.84307 34.5153 5.0526C34.5153 2.26212 32.2532 0 29.4628 0C26.6723 0 24.4102 2.26212 24.4102 5.0526C24.4102 7.84307 26.6723 10.1052 29.4628 10.1052Z" fill="#35D9A8"/>
</svg>
