<svg width="34" height="34" viewBox="0 0 34 34" fill="none" xmlns="http://www.w3.org/2000/svg">
<path opacity="0.6" fill-rule="evenodd" clip-rule="evenodd" d="M28.2201 5.65071C25.2252 2.65395 21.2422 1.00182 16.9991 1C8.25263 1 1.13646 8.11253 1.13464 16.8553C1.13101 19.6374 1.86064 22.3722 3.25075 24.783L1 33L9.40985 30.7947C11.737 32.0611 14.3426 32.7253 16.9918 32.7253H16.9991C25.7419 32.7253 32.8581 25.6109 32.8617 16.8681C32.8635 12.6322 31.215 8.64929 28.2201 5.65071Z" stroke="#1D63FF" stroke-width="2" stroke-linecap="round" stroke-linejoin="round"/>
<path d="M18.9238 19.8392L19.6626 19.1059C20.3412 18.4327 21.4148 18.3472 22.1972 18.8967C22.9541 19.428 23.6382 19.9047 24.2751 20.3487C25.2867 21.051 25.4086 22.4921 24.5371 23.3618L23.8839 24.015" stroke="#1D63FF" stroke-width="2" stroke-linecap="round" stroke-linejoin="round"/>
<path d="M9.91797 10.0483L10.5712 9.39514C11.4409 8.5254 12.882 8.64731 13.5843 9.65715C14.0265 10.294 14.5032 10.9781 15.0363 11.735C15.5858 12.5174 15.5021 13.591 14.827 14.2696L14.0938 15.0084" stroke="#1D63FF" stroke-width="2" stroke-linecap="round" stroke-linejoin="round"/>
<path d="M23.8848 24.0146C21.1901 26.6965 16.6613 24.4185 13.0859 20.8413" stroke="#1D63FF" stroke-width="2" stroke-linecap="round" stroke-linejoin="round"/>
<path d="M13.0893 20.8467C9.51392 17.2695 7.23587 12.7426 9.91786 10.0479" stroke="#1D63FF" stroke-width="2" stroke-linecap="round" stroke-linejoin="round"/>
<path d="M14.0938 15.0083C14.6742 15.9235 15.4184 16.8296 16.259 17.6703L16.2626 17.6739C17.1032 18.5145 18.0094 19.2587 18.9246 19.8391" stroke="#1D63FF" stroke-width="2" stroke-linecap="round" stroke-linejoin="round"/>
</svg>
